<?xml version="1.0" encoding="utf-8"?>
<!-- Generator: Adobe Illustrator 15.0.0, SVG Export Plug-In . SVG Version: 6.00 Build 0)  -->
<!DOCTYPE svg PUBLIC "-//W3C//DTD SVG 1.1//EN" "http://www.w3.org/Graphics/SVG/1.1/DTD/svg11.dtd">
<svg version="1.1" id="Layer_1" xmlns="http://www.w3.org/2000/svg" xmlns:xlink="http://www.w3.org/1999/xlink" x="0px" y="0px"
	 width="1792px" height="1792px" viewBox="0 0 1792 1792" enable-background="new 0 0 1792 1792" xml:space="preserve">
<path d="M1561,510.5c-68.668-117.667-161.834-210.833-279.5-279.5c-117.668-68.667-246.168-103-385.5-103
	c-139.334,0-267.834,34.333-385.5,103C392.832,299.667,299.665,392.833,231,510.5C162.333,628.167,128,756.667,128,896
	s34.333,267.833,103,385.5c68.666,117.667,161.832,210.833,279.5,279.5c117.666,68.667,246.166,103,385.5,103
	c139.332,0,267.832-34.333,385.5-103c117.666-68.667,210.832-161.833,279.5-279.5c68.666-117.667,103-246.167,103-385.5
	S1629.666,628.167,1561,510.5z M1450.166,1217.25c-57.223,98.056-134.861,175.694-232.916,232.916
	C1119.195,1507.389,1012.112,1536,896,1536c-116.112,0-223.195-28.611-321.25-85.834c-98.057-57.222-175.695-134.86-232.918-232.916
	C284.611,1119.194,256,1012.11,256,896c0-116.111,28.61-223.194,85.832-321.25c57.223-98.056,134.861-175.694,232.918-232.917
	C672.805,284.611,779.889,256,896,256c116.11,0,223.193,28.611,321.25,85.833c98.055,57.223,175.693,134.861,232.916,232.917
	C1507.388,672.806,1536,779.889,1536,896C1536,1012.11,1507.388,1119.194,1450.166,1217.25z M1344,864v64c0,9.333-3,17-9,23
	s-13.668,9-23,9H960v352c0,9.333-3,17-9,23s-13.668,9-23,9h-64c-9.334,0-17-3-23-9s-9-13.667-9-23V960H480c-9.334,0-17-3-23-9
	s-9-13.667-9-23v-64c0-9.333,3-17,9-23s13.666-9,23-9h352V480c0-9.333,3-17,9-23s13.666-9,23-9h64c9.332,0,17,3,23,9s9,13.667,9,23
	v352h352c9.332,0,17,3,23,9S1344,854.667,1344,864z"/>
</svg>
